<svg width="35" height="35" viewBox="0 0 35 35" fill="none" xmlns="http://www.w3.org/2000/svg">
<g id="Frame" clip-path="url(#clip0_3722_1651)">
<path id="Vector" d="M14.582 7.29167C14.582 6.51812 14.8893 5.77625 15.4363 5.22927C15.9833 4.68229 16.7251 4.375 17.4987 4.375C18.2722 4.375 19.0141 4.68229 19.5611 5.22927C20.1081 5.77625 20.4154 6.51812 20.4154 7.29167C22.0901 8.08358 23.5178 9.31631 24.5454 10.8577C25.573 12.3991 26.1618 14.1911 26.2487 16.0417V20.4167C26.3584 21.3233 26.6795 22.1915 27.1861 22.9514C27.6927 23.7113 28.3707 24.3416 29.1654 24.7917H5.83203C6.62673 24.3416 7.30467 23.7113 7.81126 22.9514C8.31786 22.1915 8.63895 21.3233 8.7487 20.4167V16.0417C8.83556 14.1911 9.42434 12.3991 10.452 10.8577C11.4796 9.31631 12.9073 8.08358 14.582 7.29167Z" stroke="white" stroke-width="1.5" stroke-linecap="round" stroke-linejoin="round"/>
<path id="Vector_2" d="M13.125 24.7917V26.2501C13.125 27.4104 13.5859 28.5232 14.4064 29.3437C15.2269 30.1641 16.3397 30.6251 17.5 30.6251C18.6603 30.6251 19.7731 30.1641 20.5936 29.3437C21.4141 28.5232 21.875 27.4104 21.875 26.2501V24.7917" stroke="white" stroke-width="1.5" stroke-linecap="round" stroke-linejoin="round"/>
<path id="Vector_3" d="M30.6254 9.81021C29.6688 7.72954 28.2797 5.87664 26.5508 4.375" stroke="white" stroke-width="1.5" stroke-linecap="round" stroke-linejoin="round"/>
<path id="Vector_4" d="M4.375 9.81021C5.33072 7.72981 6.71876 5.87693 8.44667 4.375" stroke="white" stroke-width="1.5" stroke-linecap="round" stroke-linejoin="round"/>
</g>
<defs>
<clipPath id="clip0_3722_1651">
<rect width="35" height="35" fill="white"/>
</clipPath>
</defs>
</svg>
