<svg width="29" height="29" viewBox="0 0 29 29" fill="none" xmlns="http://www.w3.org/2000/svg">
<g id="Frame" clip-path="url(#clip0_3034_1328)">
<path id="Vector" d="M6.04297 8.45833C6.04297 9.74021 6.55219 10.9696 7.45862 11.876C8.36504 12.7824 9.59442 13.2917 10.8763 13.2917C12.1582 13.2917 13.3876 12.7824 14.294 11.876C15.2004 10.9696 15.7096 9.74021 15.7096 8.45833C15.7096 7.17645 15.2004 5.94708 14.294 5.04065C13.3876 4.13422 12.1582 3.625 10.8763 3.625C9.59442 3.625 8.36504 4.13422 7.45862 5.04065C6.55219 5.94708 6.04297 7.17645 6.04297 8.45833Z" stroke="white" stroke-width="1.5" stroke-linecap="round" stroke-linejoin="round"/>
<path id="Vector_2" d="M3.625 25.375V22.9583C3.625 21.6765 4.13422 20.4471 5.04065 19.5407C5.94708 18.6342 7.17645 18.125 8.45833 18.125H13.2917C14.5735 18.125 15.8029 18.6342 16.7094 19.5407C17.6158 20.4471 18.125 21.6765 18.125 22.9583V25.375" stroke="white" stroke-width="1.5" stroke-linecap="round" stroke-linejoin="round"/>
<path id="Vector_3" d="M19.332 3.78198C20.3717 4.04818 21.2932 4.65283 21.9513 5.50061C22.6093 6.34839 22.9665 7.39107 22.9665 8.46427C22.9665 9.53748 22.6093 10.5802 21.9513 11.4279C21.2932 12.2757 20.3717 12.8804 19.332 13.1466" stroke="white" stroke-width="1.5" stroke-linecap="round" stroke-linejoin="round"/>
<path id="Vector_4" d="M25.375 25.3749V22.9582C25.3689 21.8915 25.01 20.8567 24.3543 20.0152C23.6986 19.1737 22.7829 18.5728 21.75 18.3062" stroke="white" stroke-width="1.5" stroke-linecap="round" stroke-linejoin="round"/>
</g>
<defs>
<clipPath id="clip0_3034_1328">
<rect width="29" height="29" fill="white"/>
</clipPath>
</defs>
</svg>
