<svg width="32" height="32" viewBox="0 0 32 32" fill="none" xmlns="http://www.w3.org/2000/svg">
<circle cx="16" cy="16" r="16" fill="#FFE3C3"/>
<path d="M18.2425 14.063L17.983 20.813M14.392 20.813L14.1325 14.063M21.6085 11.6555C21.865 11.6945 22.12 11.7358 22.375 11.78M21.6085 11.6555L20.8075 22.0678C20.7748 22.4917 20.5833 22.8876 20.2713 23.1764C19.9592 23.4653 19.5497 23.6256 19.1245 23.6255H13.2505C12.8253 23.6256 12.4158 23.4653 12.1037 23.1764C11.7917 22.8876 11.6002 22.4917 11.5675 22.0678L10.7665 11.6555M21.6085 11.6555C20.7429 11.5247 19.8728 11.4253 19 11.3578M10.7665 11.6555C10.51 11.6938 10.255 11.735 10 11.7793M10.7665 11.6555C11.6321 11.5247 12.5022 11.4253 13.375 11.3578M19 11.3578V10.6708C19 9.78576 18.3175 9.04776 17.4325 9.02001C16.6027 8.99349 15.7723 8.99349 14.9425 9.02001C14.0575 9.04776 13.375 9.78651 13.375 10.6708V11.3578M19 11.3578C17.1278 11.2131 15.2472 11.2131 13.375 11.3578" stroke="#FF6634" stroke-linecap="round" stroke-linejoin="round"/>
</svg>
